<svg id="eHoIMQfuUXR1" xmlns="http://www.w3.org/2000/svg" xmlns:xlink="http://www.w3.org/1999/xlink" viewBox="0 0 81 82"
  shape-rendering="geometricPrecision" text-rendering="geometricPrecision">
  <g id="eHoIMQfuUXR4">
    <path
      d="M27,62c-1.10457,0-2-.89543-2-2v-19c0-1.10457.89543-2,2-2h27c1.10457,0,2,.89543,2,2v19c0,1.10457-.89543,2-2,2h-27Z"
      fill="#ff5280" />
    <path
      d="M43.1737,47c-2.4323,0-2.6567,2.315-2.6567,2.315s-.4594-2.315-2.8862-2.315-2.9838,2.8105-2.4392,4.9658C35.7363,54.121,39.5409,57,40.517,57s4.3975-2.5671,5.1992-5.0342C46.5179,49.4986,45.606,47,43.1737,47Z"
      fill="#fff" />
  </g>
</svg>