<svg xmlns="http://www.w3.org/2000/svg" width="16" height="16" viewBox="0 0 16 16" fill="#2A343D">
    <path fill-rule="inherit" clip-rule="evenodd" d="M6.99585 3.24577C6.81771 3.36247 6.58157 3.56921 6.2112 3.89612L4.20926 5.66321L4.18027 5.68895C4.07192 5.78537 3.93427 5.90788 3.75948 5.97398C3.58469 6.04009 3.40043 6.03934 3.25538 6.03875L3.21662 6.03864H2.50001C2.25017 6.03864 2.11309 6.03971 2.018 6.05249L2.01435 6.05299L2.01385 6.05663C2.00107 6.15173 2.00001 6.28881 2.00001 6.53864V9.53864C2.00001 9.78848 2.00107 9.92556 2.01385 10.0207L2.01435 10.0243L2.01799 10.0248C2.11309 10.0376 2.25017 10.0386 2.50001 10.0386H3.2338L3.27297 10.0385C3.41953 10.0379 3.60574 10.0372 3.78206 10.1046C3.95838 10.172 4.09659 10.2968 4.20536 10.395L4.23448 10.4212L6.20852 12.189C6.57949 12.5212 6.81642 12.7317 6.99537 12.8508L7.00796 12.8591L7.01018 12.8442C7.04081 12.6314 7.04208 12.3145 7.04208 11.8166V4.27098C7.04208 3.77697 7.04081 3.46312 7.01041 3.25234L7.00823 3.23776L6.99585 3.24577ZM7.1278 3.17543C7.12773 3.17558 7.1259 3.17617 7.12253 3.17674C7.12619 3.17556 7.12788 3.17528 7.1278 3.17543ZM6.97834 3.11168C6.97653 3.10878 6.97576 3.10702 6.97583 3.10686C6.97589 3.10671 6.9768 3.10815 6.97834 3.11168ZM6.97515 12.9916C6.97508 12.9915 6.97586 12.9897 6.97769 12.9867C6.97613 12.9903 6.97522 12.9918 6.97515 12.9916ZM7.12322 12.9217C7.12662 12.9223 7.12847 12.9229 7.12854 12.9231C7.12862 12.9232 7.12692 12.9229 7.12322 12.9217ZM6.44789 2.40927C6.69128 2.24984 7.05663 2.07222 7.45332 2.25119C7.85002 2.43016 7.95863 2.82161 8.00017 3.10959C8.04215 3.40069 8.04212 3.78842 8.04209 4.23246L8.04208 4.27098V11.8166L8.04209 11.8551C8.04212 12.3031 8.04215 12.6937 7.99998 12.9867C7.95838 13.2757 7.84954 13.67 7.45005 13.8485C7.05057 14.027 6.68423 13.845 6.44119 13.6832C6.19482 13.5192 5.90383 13.2586 5.57013 12.9597L5.57012 12.9597L5.5414 12.934L3.56736 11.1662C3.49189 11.0986 3.45417 11.0652 3.42542 11.0429L3.4238 11.0417L3.42176 11.0415C3.38548 11.0389 3.3351 11.0386 3.2338 11.0386H2.50001L2.47281 11.0386C2.26077 11.0387 2.05471 11.0387 1.88475 11.0159C1.69315 10.9901 1.47451 10.9274 1.2929 10.7458C1.11129 10.5641 1.04853 10.3455 1.02277 10.1539C0.999921 9.98395 0.999962 9.77788 1 9.56585L1.00001 9.53864V6.53864L1 6.51144C0.999962 6.29941 0.999921 6.09334 1.02277 5.92338C1.04853 5.73178 1.11129 5.51315 1.2929 5.33154C1.47451 5.14993 1.69315 5.08717 1.88475 5.06141C2.0547 5.03856 2.26076 5.0386 2.4728 5.03864H2.4728L2.50001 5.03864H3.21662C3.31686 5.03864 3.36669 5.03836 3.40258 5.03584L3.40461 5.03569L3.40622 5.03446C3.4348 5.0126 3.47234 4.97984 3.5475 4.9135L5.54944 3.14641L5.57832 3.12091L5.57834 3.1209L5.57835 3.12089C5.91122 2.82703 6.20187 2.57043 6.44789 2.40927ZM10.1345 5.33693C10.2257 5.07628 10.5109 4.93892 10.7716 5.03012C11.5468 5.30139 12.1156 5.71974 12.4845 6.27343C12.851 6.82368 12.9896 7.46152 12.9888 8.12059C12.9881 8.77784 12.8479 9.36588 12.4685 9.8652C12.095 10.3568 11.5331 10.7045 10.8038 10.9736C10.5448 11.0692 10.2573 10.9367 10.1617 10.6777C10.0661 10.4186 10.1986 10.1311 10.4577 10.0355C11.0913 9.80166 11.4579 9.54244 11.6723 9.2602C11.8809 8.98566 11.9883 8.63292 11.9888 8.11953C11.9894 7.59876 11.8804 7.1703 11.6522 6.82786C11.4264 6.48888 11.0533 6.18815 10.4413 5.97401C10.1807 5.88281 10.0433 5.59758 10.1345 5.33693ZM10.5874 3.04341C10.3154 2.99552 10.0561 3.17716 10.0082 3.44912C9.96033 3.72108 10.142 3.98036 10.4139 4.02825C11.5592 4.22994 12.4289 4.71111 13.0117 5.38193C13.5932 6.05126 13.9207 6.94547 13.9201 8.03323C13.9195 9.12625 13.5988 9.99297 13.0242 10.6448C12.4457 11.3008 11.573 11.7808 10.3984 12.026C10.1281 12.0825 9.95475 12.3474 10.0112 12.6177C10.0676 12.888 10.3325 13.0614 10.6028 13.0049C11.9332 12.7271 13.0195 12.1622 13.7743 11.3061C14.5328 10.4457 14.9194 9.33294 14.9201 8.03375C14.9208 6.7372 14.5263 5.60054 13.7666 4.72609C13.0082 3.85314 11.9174 3.27763 10.5874 3.04341Z"/>
  </svg>