<svg width="16" height="16" viewBox="0 0 16 16" fill="none" xmlns="http://www.w3.org/2000/svg">
<path fill-rule="evenodd" clip-rule="evenodd" d="M10.7719 3.03557C10.9605 2.83381 11.2769 2.8231 11.4786 3.01164L12.7415 4.19176C12.9432 4.3803 12.954 4.6967 12.7654 4.89846L12.2347 5.4664L10.2412 3.60348L10.7719 3.03557ZM9.55844 4.33411L4.47456 9.77429C4.44112 9.81007 4.41311 9.85058 4.39145 9.8945L3.15808 12.3952C2.94332 12.8306 3.41262 13.2858 3.84128 13.0578L6.35045 11.7234C6.39918 11.6974 6.44329 11.6636 6.48099 11.6233L11.5519 6.19702L9.55844 4.33411ZM12.1614 2.28101C11.5561 1.71539 10.6069 1.74753 10.0413 2.35279L3.74393 9.09151C3.6436 9.19887 3.5596 9.32038 3.4946 9.45216L2.26123 11.9528C1.61695 13.2591 3.02484 14.6246 4.31082 13.9407L6.81999 12.6063C6.96621 12.5285 7.09854 12.4271 7.21161 12.3061L13.496 5.58124C14.0617 4.97597 14.0295 4.02675 13.4243 3.46112L12.1614 2.28101Z" fill="white"/>
<path d="M2.5 6.1986L2.46591 6.08061C2.38966 5.81668 2.18332 5.61034 1.91939 5.53409L1.8014 5.5L1.91939 5.46591C2.18332 5.38966 2.38966 5.18332 2.46591 4.91939L1.98556 4.78061L2.46591 4.91939L2.5 4.8014L2.53409 4.91939C2.61034 5.18332 2.81668 5.38966 3.08061 5.46591L3.1986 5.5L3.08061 5.53409C2.81668 5.61034 2.61034 5.81668 2.53409 6.08061L2.5 6.1986ZM3.86365 5.69214C3.86357 5.69212 3.86349 5.6921 3.86341 5.69207L3.86365 5.69214L3.91916 5.5L3.86365 5.69214Z" stroke="white"/>
<path d="M13.2867 11C13.1681 11.0693 13.0693 11.1681 13 11.2867C12.9307 11.1681 12.8319 11.0693 12.7133 11C12.8319 10.9307 12.9307 10.8319 13 10.7133C13.0693 10.8319 13.1681 10.9307 13.2867 11Z" stroke="white"/>
<circle cx="6.75" cy="2.25" r="0.75" transform="rotate(-180 6.75 2.25)" fill="white"/>
</svg>
