<svg
  width="100%"
  height="100%"
  viewBox="0 300 600 820"
  fill="none"
  xmlns="http://www.w3.org/2000/svg"
  xmlns:xlink="http://www.w3.org/1999/xlink"
>
  <g opacity="0.6">
    <g filter="url(#filter0_f_400_3520)">
      <g filter="url(#filter1_f_400_3520)">
        <path
          d="M480.971 384.547C459.731 406.137 412.827 403.493 334.064 408.781C255.743 414.508 146.005 428.608 114.145 389.394C82.7284 350.18 129.19 257.653 186.271 215.795C242.91 173.938 310.169 183.19 355.303 190.24C400.437 197.29 423.004 202.577 442.474 215.355C461.944 228.573 477.431 249.281 487.608 283.208C497.785 316.694 502.21 362.958 480.971 384.547Z"
          fill="#FE57BE"
        />
        <path
          d="M480.971 384.547C459.731 406.137 412.827 403.493 334.064 408.781C255.743 414.508 146.005 428.608 114.145 389.394C82.7284 350.18 129.19 257.653 186.271 215.795C242.91 173.938 310.169 183.19 355.303 190.24C400.437 197.29 423.004 202.577 442.474 215.355C461.944 228.573 477.431 249.281 487.608 283.208C497.785 316.694 502.21 362.958 480.971 384.547Z"
          fill="url(#pattern0)"
        />
      </g>
      <g filter="url(#filter2_f_400_3520)">
        <path
          d="M347.362 158.62C360.004 173.127 372.08 191.815 365.429 202.147C358.777 212.479 333.299 214.68 315.473 226.34C297.768 238.055 287.666 259.341 272.062 264.739C256.529 270.302 235.616 260.03 215.539 245.296C195.462 230.562 176.294 211.531 170.126 189.031C164.08 166.585 170.864 140.728 188.843 130.345C206.701 119.908 235.704 125.057 257.587 126.357C279.42 127.769 294.205 125.499 308.055 129.529C321.905 133.559 334.892 144.055 347.362 158.62Z"
          fill="#33FF00"
        />
        <path
          d="M347.362 158.62C360.004 173.127 372.08 191.815 365.429 202.147C358.777 212.479 333.299 214.68 315.473 226.34C297.768 238.055 287.666 259.341 272.062 264.739C256.529 270.302 235.616 260.03 215.539 245.296C195.462 230.562 176.294 211.531 170.126 189.031C164.08 166.585 170.864 140.728 188.843 130.345C206.701 119.908 235.704 125.057 257.587 126.357C279.42 127.769 294.205 125.499 308.055 129.529C321.905 133.559 334.892 144.055 347.362 158.62Z"
          fill="url(#pattern1)"
        />
      </g>
      <g filter="url(#filter3_f_400_3520)">
        <path
          d="M478.624 141.214C492.192 156.783 505.152 176.839 498.013 187.928C490.875 199.017 463.531 201.379 444.4 213.893C425.398 226.465 414.556 249.31 397.81 255.103C381.139 261.074 358.694 250.05 337.147 234.237C315.6 218.424 295.028 197.999 288.409 173.851C281.919 149.761 289.2 122.011 308.496 110.868C327.662 99.6667 358.789 105.192 382.275 106.588C405.707 108.103 421.574 105.667 436.438 109.992C451.302 114.317 465.24 125.582 478.624 141.214Z"
          fill="#6AC4B9"
        />
        <path
          d="M478.624 141.214C492.192 156.783 505.152 176.839 498.013 187.928C490.875 199.017 463.531 201.379 444.4 213.893C425.398 226.465 414.556 249.31 397.81 255.103C381.139 261.074 358.694 250.05 337.147 234.237C315.6 218.424 295.028 197.999 288.409 173.851C281.919 149.761 289.2 122.011 308.496 110.868C327.662 99.6667 358.789 105.192 382.275 106.588C405.707 108.103 421.574 105.667 436.438 109.992C451.302 114.317 465.24 125.582 478.624 141.214Z"
          fill="url(#pattern2)"
        />
      </g>
      <g filter="url(#filter4_f_400_3520)">
        <path
          d="M449.97 220.834C468.448 212.345 492.654 227.157 496.539 247.808C500.357 268.344 483.739 294.785 472.752 311.947C461.649 329.176 456.361 337.174 449.727 341.773C443.093 346.371 435.112 347.57 422.858 356.646C410.654 365.539 393.992 382.261 381.645 381.801C369.366 381.457 361.335 363.815 357.916 346.916C354.429 329.902 355.554 313.631 364.332 304.703C372.926 295.726 389.356 294.141 403.923 277.545C418.605 260.882 431.308 229.274 449.97 220.834Z"
          fill="#489BFF"
        />
        <path
          d="M449.97 220.834C468.448 212.345 492.654 227.157 496.539 247.808C500.357 268.344 483.739 294.785 472.752 311.947C461.649 329.176 456.361 337.174 449.727 341.773C443.093 346.371 435.112 347.57 422.858 356.646C410.654 365.539 393.992 382.261 381.645 381.801C369.366 381.457 361.335 363.815 357.916 346.916C354.429 329.902 355.554 313.631 364.332 304.703C372.926 295.726 389.356 294.141 403.923 277.545C418.605 260.882 431.308 229.274 449.97 220.834Z"
          fill="url(#pattern3)"
        />
      </g>
    </g>
  </g>
  <defs>
    <filter
      id="filter0_f_400_3520"
      x="4"
      y="-41"
      filterUnits="userSpaceOnUse"
      color-interpolation-filters="sRGB"
    >
      <feFlood flood-opacity="0" result="BackgroundImageFix" />
      <feBlend mode="normal" in="SourceGraphic" in2="BackgroundImageFix" result="shape" />
      <feGaussianBlur stdDeviation="50" result="effect1_foregroundBlur_400_3520" />
    </filter>
    <filter
      id="filter1_f_400_3520"
      x="0.280533"
      y="80.4124"
      filterUnits="userSpaceOnUse"
      color-interpolation-filters="sRGB"
    >
      <feFlood flood-opacity="0" result="BackgroundImageFix" />
      <feBlend mode="normal" in="SourceGraphic" in2="BackgroundImageFix" result="shape" />
      <feGaussianBlur stdDeviation="51.8597" result="effect1_foregroundBlur_400_3520" />
    </filter>
    <filter
      id="filter2_f_400_3520"
      x="64.2478"
      y="20.22"
      filterUnits="userSpaceOnUse"
      color-interpolation-filters="sRGB"
    >
      <feFlood flood-opacity="0" result="BackgroundImageFix" />
      <feBlend mode="normal" in="SourceGraphic" in2="BackgroundImageFix" result="shape" />
      <feGaussianBlur stdDeviation="51.8597" result="effect1_foregroundBlur_400_3520" />
    </filter>
    <filter
      id="filter3_f_400_3520"
      x="182.372"
      y="0.273697"
      filterUnits="userSpaceOnUse"
      color-interpolation-filters="sRGB"
    >
      <feFlood flood-opacity="0" result="BackgroundImageFix" />
      <feBlend mode="normal" in="SourceGraphic" in2="BackgroundImageFix" result="shape" />
      <feGaussianBlur stdDeviation="51.8597" result="effect1_foregroundBlur_400_3520" />
    </filter>
    <filter
      id="filter4_f_400_3520"
      x="252.359"
      y="114.677"
      filterUnits="userSpaceOnUse"
      color-interpolation-filters="sRGB"
    >
      <feFlood flood-opacity="0" result="BackgroundImageFix" />
      <feBlend mode="normal" in="SourceGraphic" in2="BackgroundImageFix" result="shape" />
      <feGaussianBlur stdDeviation="51.8597" result="effect1_foregroundBlur_400_3520" />
    </filter>
  </defs>
</svg>
