<svg width="608" height="924" viewBox="0 0 608 924" fill="none" xmlns="http://www.w3.org/2000/svg">
<g clip-path="url(#clip0_92_34683)">
<rect x="4" y="4" width="600" height="920" rx="8" fill="white"/>
<g opacity="0.2" filter="url(#filter0_f_92_34683)">
<path d="M-372.657 -30.9445C-414.487 9.94662 -409.365 100.248 -419.609 251.886C-430.706 402.672 -458.023 613.943 -382.047 675.28C-306.071 735.765 -126.802 646.315 -45.7042 536.42C35.3938 427.377 17.4668 297.889 3.80822 210.995C-9.85039 124.101 -20.0943 80.6543 -44.8506 43.1707C-70.4605 5.6871 -110.583 -24.1294 -176.315 -43.723C-241.193 -63.3167 -330.828 -71.8357 -372.657 -30.9445Z" fill="#9EA0A9"/>
</g>
<g filter="url(#filter1_f_92_34683)">
<path d="M420.964 165.631C368.121 216.991 300.956 267.089 266.691 243.92C232.426 220.752 230.309 123.982 193.861 58.4502C157.201 -6.60942 85.8339 -40.5992 70.5459 -98.9943C54.6696 -157.084 94.6605 -239.106 149.89 -318.892C205.12 -398.677 274.999 -475.92 354.063 -504.285C432.915 -532.177 520.787 -511.832 552.789 -445.44C585.002 -379.522 560.969 -267.725 551.765 -183.927C542.184 -100.295 546.844 -44.3559 529.937 9.3691C513.031 63.0941 473.971 114.91 420.964 165.631Z" fill="#9EA0A9" fill-opacity="0.09"/>
</g>
<g opacity="0.3" filter="url(#filter2_f_92_34683)">
<path d="M1079.61 203.204C1139.26 235.226 1202.74 314.979 1197.2 386.877C1192.09 459.38 1117.96 524.028 1058.31 533.091C998.232 542.154 952.643 496.235 922.819 473.88C892.994 451.525 878.934 453.338 821.415 444.275C764.323 434.608 664.197 414.67 622.017 334.917C579.837 254.56 595.175 114.992 652.694 82.9704C709.786 50.3442 808.207 126.472 885.751 156.681C963.295 186.891 1019.54 171.182 1079.61 203.204Z" fill="#9EA0A9"/>
</g>
<path d="M332.741 186.231L259.46 60.3107C244.482 34.5731 207.247 34.5607 192.251 60.2882L-121.727 598.975C-128.777 611.07 -128.756 626.017 -121.672 638.093L-48.5127 762.806C-33.4852 788.423 3.62085 788.392 18.6057 762.75L332.705 225.271C339.752 213.212 339.766 198.303 332.741 186.231Z" fill="white"/>
<path d="M360.791 -135H345.89C313.726 -135 293.597 -100.148 309.627 -72.2111L489.9 241.979C505.885 269.838 545.931 270.048 562.207 242.358L642.215 106.237C649.919 93.1292 649.929 76.8682 642.24 63.7517L609.256 7.4857C557.509 -80.7857 462.971 -135 360.791 -135Z" fill="white"/>
</g>
<defs>
<filter id="filter0_f_92_34683" x="-563.597" y="-190.044" width="709.239" height="1014.86" filterUnits="userSpaceOnUse" color-interpolation-filters="sRGB">
<feFlood flood-opacity="0" result="BackgroundImageFix"/>
<feBlend mode="normal" in="SourceGraphic" in2="BackgroundImageFix" result="shape"/>
<feGaussianBlur stdDeviation="65" result="effect1_foregroundBlur_92_34683"/>
</filter>
<filter id="filter1_f_92_34683" x="-42.9648" y="-626.434" width="722.013" height="986.174" filterUnits="userSpaceOnUse" color-interpolation-filters="sRGB">
<feFlood flood-opacity="0" result="BackgroundImageFix"/>
<feBlend mode="normal" in="SourceGraphic" in2="BackgroundImageFix" result="shape"/>
<feGaussianBlur stdDeviation="55" result="effect1_foregroundBlur_92_34683"/>
</filter>
<filter id="filter2_f_92_34683" x="468" y="-55" width="859.543" height="719.26" filterUnits="userSpaceOnUse" color-interpolation-filters="sRGB">
<feFlood flood-opacity="0" result="BackgroundImageFix"/>
<feBlend mode="normal" in="SourceGraphic" in2="BackgroundImageFix" result="shape"/>
<feGaussianBlur stdDeviation="65" result="effect1_foregroundBlur_92_34683"/>
</filter>
<clipPath id="clip0_92_34683">
<rect x="4" y="4" width="600" height="920" rx="8" fill="white"/>
</clipPath>
</defs>
</svg>
